<?xml version="1.0" encoding="UTF-8"?><svg id="_レイヤー_2" xmlns="http://www.w3.org/2000/svg" viewBox="0 0 281.45 121.05"><defs><style>.cls-1{fill:#fff;}</style></defs><g id="_コンテンツ"><g><path class="cls-1" d="m3.12,30.32H0V1.93h3.12v28.4Z"/><path class="cls-1" d="m13.73,11.55c.06.51.1,1.07.13,1.68.03.62.04,1.12.04,1.52h.09c.58-1.1,1.52-1.99,2.82-2.67,1.3-.68,2.67-1.02,4.12-1.02,2.57,0,4.5.71,5.78,2.13s1.93,3.29,1.93,5.62v11.51h-2.95v-10.39c0-.99-.09-1.89-.26-2.69s-.47-1.49-.89-2.07c-.42-.57-.98-1.02-1.69-1.34-.71-.32-1.6-.48-2.66-.48-.78,0-1.54.15-2.27.44-.74.29-1.39.74-1.97,1.34s-1.04,1.36-1.39,2.29c-.35.92-.52,2.01-.52,3.27v9.63h-2.95v-14.64c0-.51-.02-1.16-.04-1.97-.03-.8-.07-1.52-.13-2.17h2.82Z"/><path class="cls-1" d="m45.4,13.84h-5.72v10.95c0,.7.07,1.27.22,1.72.14.46.35.81.63,1.06.27.25.6.43.97.52.38.09.78.14,1.21.14.4,0,.83-.05,1.28-.16s.87-.25,1.28-.44l.13,2.37c-.52.19-1.06.33-1.62.42-.56.09-1.18.14-1.84.14-.55,0-1.13-.07-1.73-.2-.61-.13-1.17-.39-1.69-.76-.52-.37-.95-.88-1.28-1.52-.33-.64-.5-1.48-.5-2.53v-11.71h-4.2v-2.29h4.2v-5.29h2.95v5.29h5.72v2.29Z"/><path class="cls-1" d="m68.45,20.38v.6c0,.21-.02.44-.04.68h-16.81c.03.94.23,1.82.61,2.65.38.83.89,1.55,1.56,2.17.66.62,1.44,1.1,2.34,1.46.9.36,1.86.54,2.9.54,1.53,0,2.85-.33,3.96-.98,1.11-.66,1.96-1.41,2.53-2.27l2.21,1.6c-1.21,1.42-2.55,2.43-4.01,3.05-1.46.62-3.03.92-4.7.92-1.5,0-2.9-.25-4.18-.74-1.29-.49-2.39-1.18-3.31-2.07-.92-.88-1.65-1.93-2.19-3.13-.53-1.2-.8-2.51-.8-3.93s.26-2.73.78-3.93c.52-1.2,1.24-2.25,2.17-3.13s2.01-1.57,3.25-2.07c1.24-.49,2.58-.74,4.03-.74,1.59,0,2.99.25,4.2.74,1.21.5,2.22,1.16,3.03,2.01.81.84,1.42,1.83,1.84,2.95.42,1.12.63,2.33.63,3.61Zm-2.99-.88c-.09-1.77-.7-3.23-1.84-4.39-1.14-1.16-2.77-1.75-4.87-1.75-.98,0-1.89.17-2.73.5-.84.33-1.57.79-2.21,1.36-.64.58-1.14,1.23-1.52,1.97-.38.74-.59,1.5-.65,2.31h13.82Z"/><path class="cls-1" d="m74.73,13.72c-.03-.8-.07-1.52-.13-2.17h2.82c.06.51.1,1.07.13,1.68.03.62.04,1.12.04,1.52h.09c.58-1.1,1.44-1.99,2.6-2.67,1.15-.68,2.45-1.02,3.9-1.02.38,0,.71.01,1.02.04.3.03.61.08.93.16l-.39,2.57c-.17-.05-.46-.11-.87-.16-.4-.05-.81-.08-1.21-.08-.78,0-1.53.13-2.25.4-.72.27-1.35.69-1.88,1.26-.53.58-.97,1.31-1.3,2.21-.33.9-.5,1.97-.5,3.23v9.63h-2.95v-14.64c0-.51-.02-1.16-.04-1.97Z"/><path class="cls-1" d="m93.96,4.33c0,.56-.22,1.02-.65,1.38s-.91.54-1.43.54-1-.18-1.43-.54-.65-.82-.65-1.38.22-1.02.65-1.38c.43-.36.91-.54,1.43-.54s1,.18,1.43.54c.43.36.65.82.65,1.38Zm-.61,25.99h-2.95V11.55h2.95v18.77Z"/><path class="cls-1" d="m121.34,20.94c0,1.42-.27,2.73-.8,3.93-.53,1.2-1.28,2.25-2.23,3.13-.95.88-2.09,1.57-3.42,2.07-1.33.49-2.79.74-4.38.74s-3-.25-4.33-.74c-1.33-.49-2.47-1.18-3.42-2.07-.95-.88-1.7-1.93-2.23-3.13-.53-1.2-.8-2.51-.8-3.93s.27-2.73.8-3.93c.53-1.2,1.28-2.25,2.23-3.13s2.09-1.57,3.42-2.07c1.33-.49,2.77-.74,4.33-.74s3.05.25,4.38.74c1.33.5,2.47,1.18,3.42,2.07s1.7,1.93,2.23,3.13c.53,1.2.8,2.51.8,3.93Zm-3.12,0c0-1.04-.18-2.03-.54-2.95-.36-.92-.87-1.72-1.54-2.41-.66-.68-1.47-1.22-2.43-1.62-.95-.4-2.02-.6-3.21-.6s-2.25.2-3.18.6c-.94.4-1.74.94-2.4,1.62-.67.68-1.18,1.48-1.54,2.41-.36.92-.54,1.91-.54,2.95s.18,2.03.54,2.95c.36.92.87,1.73,1.54,2.41.66.68,1.47,1.22,2.4,1.6.94.39,2,.58,3.18.58s2.25-.19,3.21-.58c.95-.39,1.76-.92,2.43-1.6.66-.68,1.18-1.48,1.54-2.41.36-.92.54-1.91.54-2.95Z"/><path class="cls-1" d="m127.62,13.72c-.03-.8-.07-1.52-.13-2.17h2.82c.06.51.1,1.07.13,1.68.03.62.04,1.12.04,1.52h.09c.58-1.1,1.44-1.99,2.6-2.67,1.15-.68,2.45-1.02,3.9-1.02.38,0,.71.01,1.02.04.3.03.61.08.93.16l-.39,2.57c-.17-.05-.46-.11-.87-.16-.4-.05-.81-.08-1.21-.08-.78,0-1.53.13-2.25.4-.72.27-1.35.69-1.88,1.26-.53.58-.97,1.31-1.3,2.21-.33.9-.5,1.97-.5,3.23v9.63h-2.95v-14.64c0-.51-.02-1.16-.04-1.97Z"/><path class="cls-1" d="m170.77,27.16c-.87,1.2-1.99,2.11-3.38,2.73-1.39.62-2.82.92-4.29.92-1.59,0-3.03-.25-4.31-.76-1.29-.51-2.38-1.2-3.29-2.09-.91-.88-1.62-1.93-2.12-3.13-.51-1.2-.76-2.5-.76-3.89s.25-2.69.76-3.89c.5-1.2,1.21-2.25,2.12-3.13.91-.88,2.01-1.58,3.29-2.09,1.28-.51,2.72-.76,4.31-.76,1.47,0,2.9.31,4.29.94,1.39.63,2.51,1.56,3.38,2.79h.09V0h2.95v30.32h-2.95v-3.17h-.09Zm-15.03-6.22c0,1.04.17,2.03.52,2.95.35.92.84,1.73,1.49,2.41.65.68,1.45,1.22,2.4,1.6.95.39,2.04.58,3.25.58,1.13,0,2.17-.19,3.12-.58.95-.39,1.78-.92,2.47-1.58.69-.67,1.23-1.46,1.62-2.39.39-.92.58-1.92.58-2.99s-.19-2.07-.58-2.99c-.39-.92-.93-1.72-1.62-2.41-.69-.68-1.52-1.22-2.47-1.6-.95-.39-1.99-.58-3.12-.58-1.21,0-2.3.2-3.25.6-.95.4-1.75.94-2.4,1.62-.65.68-1.15,1.48-1.49,2.41-.35.92-.52,1.91-.52,2.95Z"/><path class="cls-1" d="m200.14,20.38v.6c0,.21-.02.44-.04.68h-16.81c.03.94.23,1.82.61,2.65.38.83.89,1.55,1.56,2.17.66.62,1.44,1.1,2.34,1.46.9.36,1.86.54,2.9.54,1.53,0,2.85-.33,3.96-.98,1.11-.66,1.96-1.41,2.53-2.27l2.21,1.6c-1.21,1.42-2.55,2.43-4.01,3.05-1.46.62-3.03.92-4.7.92-1.5,0-2.9-.25-4.18-.74-1.29-.49-2.39-1.18-3.31-2.07-.92-.88-1.65-1.93-2.19-3.13-.53-1.2-.8-2.51-.8-3.93s.26-2.73.78-3.93c.52-1.2,1.24-2.25,2.17-3.13s2.01-1.57,3.25-2.07c1.24-.49,2.58-.74,4.03-.74,1.59,0,2.99.25,4.2.74,1.21.5,2.22,1.16,3.03,2.01.81.84,1.42,1.83,1.84,2.95.42,1.12.63,2.33.63,3.61Zm-2.99-.88c-.09-1.77-.7-3.23-1.84-4.39-1.14-1.16-2.77-1.75-4.87-1.75-.98,0-1.89.17-2.73.5-.84.33-1.57.79-2.21,1.36-.64.58-1.14,1.23-1.52,1.97-.38.74-.59,1.5-.65,2.31h13.82Z"/><path class="cls-1" d="m217.25,16c-.43-.78-1.09-1.41-1.97-1.91-.88-.49-1.88-.74-3.01-.74-.52,0-1.04.05-1.56.16-.52.11-.98.28-1.39.52-.4.24-.73.55-.97.92-.25.38-.37.82-.37,1.32,0,.88.39,1.56,1.17,2.03.78.47,2.01.86,3.68,1.18,2.4.46,4.17,1.12,5.31,1.99,1.14.87,1.71,2.04,1.71,3.51,0,1.07-.22,1.97-.67,2.71-.45.74-1.03,1.34-1.75,1.81-.72.47-1.54.8-2.45,1-.91.2-1.83.3-2.75.3-1.53,0-3.02-.29-4.46-.88-1.44-.59-2.63-1.51-3.55-2.77l2.34-1.6c.52.83,1.28,1.52,2.3,2.09,1.01.56,2.12.84,3.34.84.63,0,1.24-.05,1.82-.16.58-.11,1.08-.29,1.52-.56.43-.27.78-.61,1.04-1.02.26-.41.39-.93.39-1.54,0-.99-.51-1.73-1.54-2.23-1.03-.49-2.51-.96-4.44-1.38-.61-.13-1.25-.3-1.93-.5-.68-.2-1.31-.49-1.88-.88-.58-.39-1.05-.88-1.43-1.46-.38-.59-.56-1.32-.56-2.21,0-.96.2-1.79.61-2.47.4-.68.95-1.24,1.62-1.68.68-.44,1.45-.77,2.32-.98.87-.21,1.76-.32,2.69-.32,1.41,0,2.79.29,4.12.88,1.33.59,2.32,1.42,2.99,2.49l-2.25,1.56Z"/><path class="cls-1" d="m229.29,4.33c0,.56-.22,1.02-.65,1.38s-.91.54-1.43.54-1-.18-1.43-.54-.65-.82-.65-1.38.22-1.02.65-1.38c.43-.36.91-.54,1.43-.54s1,.18,1.43.54c.43.36.65.82.65,1.38Zm-.61,25.99h-2.95V11.55h2.95v18.77Z"/><path class="cls-1" d="m237.61,34.09c.81.96,1.91,1.78,3.31,2.45,1.4.67,2.88,1,4.44,1,1.44,0,2.67-.19,3.68-.58,1.01-.39,1.83-.92,2.45-1.58.62-.67,1.08-1.45,1.36-2.35.29-.9.43-1.85.43-2.87v-3.53h-.09c-.78,1.18-1.88,2.09-3.31,2.73-1.43.64-2.88.96-4.35.96-1.59,0-3.03-.24-4.31-.72-1.29-.48-2.38-1.14-3.29-1.99s-1.62-1.85-2.12-3.03c-.51-1.18-.76-2.45-.76-3.81s.25-2.59.76-3.77c.5-1.18,1.21-2.21,2.12-3.09.91-.88,2.01-1.58,3.29-2.09,1.28-.51,2.72-.76,4.31-.76,1.47,0,2.92.32,4.33.96,1.41.64,2.53,1.56,3.34,2.77h.09v-3.25h2.95v18.61c0,1.02-.15,2.1-.46,3.25-.3,1.15-.87,2.21-1.69,3.17-.82.96-1.94,1.77-3.36,2.41-1.42.64-3.25.96-5.5.96-1.88,0-3.67-.33-5.37-1-1.7-.67-3.16-1.59-4.38-2.77l2.12-2.09Zm.56-13.4c0,.99.17,1.93.52,2.81s.84,1.66,1.49,2.33c.65.67,1.45,1.2,2.4,1.58.95.39,2.04.58,3.25.58,1.13,0,2.17-.17,3.12-.52.95-.35,1.78-.84,2.47-1.48.69-.64,1.23-1.41,1.62-2.31.39-.9.58-1.89.58-2.99,0-.99-.19-1.93-.58-2.81-.39-.88-.93-1.66-1.62-2.33-.69-.67-1.52-1.2-2.47-1.6-.95-.4-1.99-.6-3.12-.6-1.21,0-2.3.2-3.25.6-.95.4-1.75.94-2.4,1.6-.65.67-1.15,1.44-1.49,2.33s-.52,1.82-.52,2.81Z"/><path class="cls-1" d="m266.54,11.55c.06.51.1,1.07.13,1.68.03.62.04,1.12.04,1.52h.09c.58-1.1,1.52-1.99,2.82-2.67,1.3-.68,2.67-1.02,4.12-1.02,2.57,0,4.5.71,5.78,2.13s1.93,3.29,1.93,5.62v11.51h-2.95v-10.39c0-.99-.09-1.89-.26-2.69s-.47-1.49-.89-2.07c-.42-.57-.98-1.02-1.69-1.34-.71-.32-1.6-.48-2.66-.48-.78,0-1.54.15-2.27.44-.74.29-1.39.74-1.97,1.34s-1.04,1.36-1.39,2.29c-.35.92-.52,2.01-.52,3.27v9.63h-2.95v-14.64c0-.51-.02-1.16-.04-1.97-.03-.8-.07-1.52-.13-2.17h2.82Z"/><path class="cls-1" d="m148.22,68.75l6.89,6.58h-4.33l-4.33-4.21c-1.27,1.6-2.64,2.79-4.12,3.55-1.47.76-3.25,1.14-5.33,1.14-1.3,0-2.53-.17-3.7-.52-1.17-.35-2.19-.85-3.05-1.5-.87-.65-1.55-1.47-2.06-2.45-.51-.98-.76-2.11-.76-3.39,0-1.07.18-2.03.54-2.89.36-.86.86-1.62,1.49-2.31.63-.68,1.39-1.29,2.25-1.82.87-.53,1.8-1,2.82-1.4-.46-.43-.92-.9-1.36-1.4-.45-.51-.84-1.04-1.19-1.58-.35-.55-.63-1.13-.84-1.74-.22-.61-.33-1.24-.33-1.89,0-1.07.2-2.02.61-2.85.4-.83.95-1.53,1.65-2.11.69-.57,1.5-1.01,2.43-1.3.92-.29,1.91-.44,2.95-.44s1.96.14,2.86.42c.89.28,1.68.7,2.36,1.24.68.55,1.21,1.22,1.6,2.01.39.79.58,1.69.58,2.71,0,.94-.19,1.78-.58,2.53-.39.75-.91,1.42-1.56,2.03-.65.6-1.39,1.14-2.21,1.6s-1.67.9-2.53,1.3l7.15,6.82,4.25-6.9h3.51l-5.63,8.78Zm-11.96-7.38c-1.85.78-3.25,1.69-4.2,2.75-.95,1.06-1.43,2.35-1.43,3.87,0,.8.17,1.54.5,2.21.33.67.79,1.24,1.39,1.7.59.47,1.28.84,2.06,1.1.78.27,1.6.4,2.47.4,1.67,0,3.07-.35,4.18-1.04,1.11-.69,2.16-1.74,3.14-3.13l-8.1-7.86Zm6.54-8.78c0-1.18-.41-2.14-1.23-2.89-.82-.75-1.86-1.12-3.1-1.12-1.36,0-2.47.4-3.34,1.18-.87.79-1.3,1.85-1.3,3.19,0,.51.12,1.04.35,1.58.23.55.52,1.06.87,1.54s.71.92,1.1,1.32c.39.4.73.71,1.02.92.69-.29,1.37-.62,2.04-.98.66-.36,1.26-.77,1.8-1.22.53-.45.97-.98,1.3-1.56.33-.59.5-1.24.5-1.97Z"/><path class="cls-1" d="m48.65,115.75c-.52.72-1.15,1.4-1.88,2.05-.74.64-1.59,1.2-2.56,1.68-.97.48-2.04.86-3.21,1.14-1.17.28-2.45.42-3.83.42-2.31,0-4.45-.38-6.41-1.12-1.96-.75-3.65-1.79-5.07-3.11s-2.52-2.89-3.31-4.71c-.79-1.82-1.19-3.81-1.19-5.98s.4-4.16,1.21-5.98c.81-1.82,1.93-3.39,3.36-4.71,1.43-1.32,3.12-2.36,5.07-3.11,1.95-.75,4.06-1.12,6.35-1.12,1.13,0,2.23.11,3.31.32,1.08.21,2.1.52,3.05.9.95.39,1.82.86,2.6,1.4.78.55,1.43,1.17,1.95,1.87l-2.6,1.76c-.32-.45-.74-.91-1.28-1.36-.53-.45-1.16-.86-1.88-1.2-.72-.35-1.51-.63-2.36-.84-.85-.21-1.77-.32-2.75-.32-1.99,0-3.78.33-5.35,1-1.57.67-2.91,1.57-4.01,2.71-1.1,1.14-1.94,2.45-2.51,3.95-.58,1.5-.87,3.08-.87,4.73s.3,3.24.89,4.73c.59,1.5,1.44,2.81,2.53,3.95,1.1,1.14,2.43,2.04,4.01,2.71,1.57.67,3.34,1,5.31,1,1.76,0,3.44-.33,5.02-1s2.92-1.74,3.99-3.21l2.43,1.44Z"/><path class="cls-1" d="m73.99,110.94c0,1.42-.27,2.73-.8,3.93-.53,1.2-1.28,2.25-2.23,3.13-.95.88-2.09,1.57-3.42,2.07-1.33.49-2.79.74-4.38.74s-3-.25-4.33-.74c-1.33-.49-2.47-1.18-3.42-2.07-.95-.88-1.7-1.93-2.23-3.13-.53-1.2-.8-2.51-.8-3.93s.27-2.73.8-3.93c.53-1.2,1.28-2.25,2.23-3.13s2.09-1.57,3.42-2.07c1.33-.49,2.77-.74,4.33-.74s3.05.25,4.38.74c1.33.5,2.47,1.18,3.42,2.07s1.7,1.93,2.23,3.13c.53,1.2.8,2.51.8,3.93Zm-3.12,0c0-1.04-.18-2.03-.54-2.95-.36-.92-.87-1.72-1.54-2.41-.66-.68-1.47-1.22-2.43-1.62-.95-.4-2.02-.6-3.21-.6s-2.25.2-3.18.6c-.94.4-1.74.94-2.4,1.62-.67.68-1.18,1.48-1.54,2.41-.36.92-.54,1.91-.54,2.95s.18,2.03.54,2.95c.36.92.87,1.73,1.54,2.41.66.68,1.47,1.22,2.4,1.6.94.39,2,.58,3.18.58s2.25-.19,3.21-.58c.95-.39,1.76-.92,2.43-1.6.66-.68,1.18-1.48,1.54-2.41.36-.92.54-1.91.54-2.95Z"/><path class="cls-1" d="m82.96,101.55c.06.51.1,1.07.13,1.68.03.62.04,1.12.04,1.52h.09c.58-1.1,1.52-1.99,2.82-2.67,1.3-.68,2.67-1.02,4.12-1.02,2.57,0,4.5.71,5.78,2.13s1.93,3.29,1.93,5.62v11.51h-2.95v-10.39c0-.99-.09-1.89-.26-2.69s-.47-1.49-.89-2.07c-.42-.57-.98-1.02-1.69-1.34-.71-.32-1.6-.48-2.66-.48-.78,0-1.54.15-2.27.44-.74.29-1.39.74-1.97,1.34s-1.04,1.36-1.39,2.29c-.35.92-.52,2.01-.52,3.27v9.63h-2.95v-14.64c0-.51-.02-1.16-.04-1.97-.03-.8-.07-1.52-.13-2.17h2.82Z"/><path class="cls-1" d="m116.27,106c-.43-.78-1.09-1.41-1.97-1.91-.88-.49-1.88-.74-3.01-.74-.52,0-1.04.05-1.56.16-.52.11-.98.28-1.39.52-.4.24-.73.55-.97.92-.25.38-.37.82-.37,1.32,0,.88.39,1.56,1.17,2.03.78.47,2.01.86,3.68,1.18,2.4.46,4.17,1.12,5.31,1.99,1.14.87,1.71,2.04,1.71,3.51,0,1.07-.22,1.97-.67,2.71-.45.74-1.03,1.34-1.75,1.81-.72.47-1.54.8-2.45,1-.91.2-1.83.3-2.75.3-1.53,0-3.02-.29-4.46-.88-1.44-.59-2.63-1.51-3.55-2.77l2.34-1.6c.52.83,1.28,1.52,2.3,2.09,1.01.56,2.12.84,3.34.84.63,0,1.24-.05,1.82-.16.58-.11,1.08-.29,1.52-.56.43-.27.78-.61,1.04-1.02.26-.41.39-.93.39-1.54,0-.99-.51-1.73-1.54-2.23-1.03-.49-2.51-.96-4.44-1.38-.61-.13-1.25-.3-1.93-.5-.68-.2-1.31-.49-1.88-.88-.58-.39-1.05-.88-1.43-1.46-.38-.59-.56-1.32-.56-2.21,0-.96.2-1.79.61-2.47.4-.68.95-1.24,1.62-1.68.68-.44,1.45-.77,2.32-.98.87-.21,1.76-.32,2.69-.32,1.41,0,2.79.29,4.12.88,1.33.59,2.32,1.42,2.99,2.49l-2.25,1.56Z"/><path class="cls-1" d="m133.86,103.84h-5.72v10.95c0,.7.07,1.27.22,1.72.14.46.35.81.63,1.06.27.25.6.43.97.52.38.09.78.14,1.21.14.4,0,.83-.05,1.28-.16s.87-.25,1.28-.44l.13,2.37c-.52.19-1.06.33-1.62.42-.56.09-1.18.14-1.84.14-.55,0-1.13-.07-1.73-.2-.61-.13-1.17-.39-1.69-.76-.52-.37-.95-.88-1.28-1.52-.33-.64-.5-1.48-.5-2.53v-11.71h-4.2v-2.29h4.2v-5.29h2.95v5.29h5.72v2.29Z"/><path class="cls-1" d="m138.41,103.72c-.03-.8-.07-1.52-.13-2.17h2.82c.06.51.1,1.07.13,1.68.03.62.04,1.12.04,1.52h.09c.58-1.1,1.44-1.99,2.6-2.67,1.15-.68,2.45-1.02,3.9-1.02.38,0,.71.01,1.02.04.3.03.61.08.93.16l-.39,2.57c-.17-.05-.46-.11-.87-.16-.4-.05-.81-.08-1.21-.08-.78,0-1.53.13-2.25.4-.72.27-1.35.69-1.88,1.26-.53.58-.97,1.31-1.3,2.21-.33.9-.5,1.97-.5,3.23v9.63h-2.95v-14.64c0-.51-.02-1.16-.04-1.97Z"/><path class="cls-1" d="m168.77,120.32c-.06-.51-.1-1.07-.13-1.68-.03-.61-.04-1.12-.04-1.52h-.09c-.58,1.1-1.52,1.99-2.82,2.67-1.3.68-2.67,1.02-4.12,1.02-2.57,0-4.5-.71-5.78-2.13-1.29-1.42-1.93-3.29-1.93-5.62v-11.51h2.95v10.39c0,.99.09,1.89.26,2.69.17.8.47,1.49.89,2.07.42.58.98,1.02,1.69,1.34.71.32,1.6.48,2.66.48.78,0,1.54-.15,2.27-.44.74-.29,1.39-.74,1.97-1.34.58-.6,1.04-1.36,1.39-2.29.35-.92.52-2.01.52-3.27v-9.63h2.95v14.64c0,.51.01,1.16.04,1.97s.07,1.52.13,2.17h-2.82Z"/><path class="cls-1" d="m193.81,105.84c-.49-.72-1.21-1.32-2.14-1.78-.94-.47-1.96-.7-3.05-.7-1.18,0-2.25.19-3.21.58-.95.39-1.77.92-2.45,1.6-.68.68-1.2,1.48-1.56,2.41-.36.92-.54,1.92-.54,2.99s.18,2.06.54,2.97c.36.91.87,1.71,1.54,2.39.66.68,1.47,1.22,2.43,1.6.95.39,2.02.58,3.21.58,1.3,0,2.4-.23,3.29-.68.9-.45,1.63-1.04,2.21-1.77l2.21,1.52c-.87.99-1.93,1.78-3.18,2.37s-2.77.88-4.53.88c-1.65,0-3.13-.25-4.46-.74-1.33-.49-2.46-1.18-3.4-2.07-.94-.88-1.67-1.93-2.19-3.13-.52-1.2-.78-2.51-.78-3.93s.26-2.73.78-3.93c.52-1.2,1.25-2.25,2.19-3.13.94-.88,2.07-1.57,3.4-2.07,1.33-.49,2.82-.74,4.46-.74,1.36,0,2.74.27,4.14.82,1.4.55,2.53,1.36,3.4,2.43l-2.3,1.52Z"/><path class="cls-1" d="m210.01,103.84h-5.72v10.95c0,.7.07,1.27.22,1.72.14.46.35.81.63,1.06.27.25.6.43.97.52.38.09.78.14,1.21.14.4,0,.83-.05,1.28-.16s.87-.25,1.28-.44l.13,2.37c-.52.19-1.06.33-1.62.42-.56.09-1.18.14-1.84.14-.55,0-1.13-.07-1.73-.2-.61-.13-1.17-.39-1.69-.76-.52-.37-.95-.88-1.28-1.52-.33-.64-.5-1.48-.5-2.53v-11.71h-4.2v-2.29h4.2v-5.29h2.95v5.29h5.72v2.29Z"/><path class="cls-1" d="m218.2,94.33c0,.56-.22,1.02-.65,1.38s-.91.54-1.43.54-1-.18-1.43-.54-.65-.82-.65-1.38.22-1.02.65-1.38c.43-.36.91-.54,1.43-.54s1,.18,1.43.54c.43.36.65.82.65,1.38Zm-.61,25.99h-2.95v-18.77h2.95v18.77Z"/><path class="cls-1" d="m245.58,110.94c0,1.42-.27,2.73-.8,3.93-.53,1.2-1.28,2.25-2.23,3.13-.95.88-2.09,1.57-3.42,2.07-1.33.49-2.79.74-4.38.74s-3-.25-4.33-.74c-1.33-.49-2.47-1.18-3.42-2.07-.95-.88-1.7-1.93-2.23-3.13-.53-1.2-.8-2.51-.8-3.93s.27-2.73.8-3.93c.53-1.2,1.28-2.25,2.23-3.13s2.09-1.57,3.42-2.07c1.33-.49,2.77-.74,4.33-.74s3.05.25,4.38.74c1.33.5,2.47,1.18,3.42,2.07s1.7,1.93,2.23,3.13c.53,1.2.8,2.51.8,3.93Zm-3.12,0c0-1.04-.18-2.03-.54-2.95-.36-.92-.87-1.72-1.54-2.41-.66-.68-1.47-1.22-2.43-1.62-.95-.4-2.02-.6-3.21-.6s-2.25.2-3.18.6c-.94.4-1.74.94-2.4,1.62-.67.68-1.18,1.48-1.54,2.41-.36.92-.54,1.91-.54,2.95s.18,2.03.54,2.95c.36.92.87,1.73,1.54,2.41.66.68,1.47,1.22,2.4,1.6.94.39,2,.58,3.18.58s2.25-.19,3.21-.58c.95-.39,1.76-.92,2.43-1.6.66-.68,1.18-1.48,1.54-2.41.36-.92.54-1.91.54-2.95Z"/><path class="cls-1" d="m254.55,101.55c.06.51.1,1.07.13,1.68.03.62.04,1.12.04,1.52h.09c.58-1.1,1.52-1.99,2.82-2.67,1.3-.68,2.67-1.02,4.12-1.02,2.57,0,4.5.71,5.78,2.13s1.93,3.29,1.93,5.62v11.51h-2.95v-10.39c0-.99-.09-1.89-.26-2.69s-.47-1.49-.89-2.07c-.42-.57-.98-1.02-1.69-1.34-.71-.32-1.6-.48-2.66-.48-.78,0-1.54.15-2.27.44-.74.29-1.39.74-1.97,1.34s-1.04,1.36-1.39,2.29c-.35.92-.52,2.01-.52,3.27v9.63h-2.95v-14.64c0-.51-.02-1.16-.04-1.97-.03-.8-.07-1.52-.13-2.17h2.82Z"/></g></g></svg>