<?xml version="1.0" encoding="UTF-8"?><svg id="_レイヤー_2" xmlns="http://www.w3.org/2000/svg" viewBox="0 0 290.5 460.86"><defs><style>.cls-1,.cls-2{fill:#fff;}.cls-2{opacity:.99;}</style></defs><g id="_コンテンツ"><g><g><path class="cls-1" d="m15.47,112.79H0C0,74.68,65.63,0,144.97,0s145.53,74.64,145.53,112.74h-15.47c0-27.42-57.67-97.27-130.06-97.27S15.47,85.36,15.47,112.79Z"/><path class="cls-1" d="m145.32,460.86C65.8,460.86,0,386.14,0,348.01h15.47c0,27.45,57.58,97.38,129.85,97.38s129.7-69.93,129.7-97.38h15.47c0,38.14-65.73,112.86-145.17,112.86Z"/><g><path class="cls-1" d="m7.73,112.79v235.22s0-235.22,0-235.22Z"/><rect class="cls-1" y="112.79" width="15.47" height="235.22"/></g><rect class="cls-1" x="275.03" y="112.74" width="15.47" height="235.27"/></g><polygon class="cls-2" points="283.21 355.74 7.93 355.67 3.86 341.36 262.72 180.93 5.96 120.32 9.51 105.26 284.42 170.16 286.72 184.26 35.09 340.21 283.22 340.27 283.21 355.74"/></g></g></svg>