<?xml version="1.0" encoding="UTF-8"?><svg id="_レイヤー_2" xmlns="http://www.w3.org/2000/svg" viewBox="0 0 523.21 322.06"><defs><style>.cls-1,.cls-2{fill:#fff;}.cls-2{opacity:.99;}</style></defs><g id="_コンテンツ"><g><g><g><path class="cls-1" d="m203.13,50.82h-6.97c0-17.17,29.57-50.82,65.31-50.82s65.57,33.63,65.57,50.79h-6.97c0-12.35-25.98-43.82-58.6-43.82s-58.34,31.49-58.34,43.85Z"/><path class="cls-1" d="m261.64,207.64c-35.83,0-65.47-33.66-65.47-50.85h6.97c0,12.37,25.94,43.88,58.5,43.88s58.44-31.51,58.44-43.88h6.97c0,17.18-29.61,50.85-65.41,50.85Z"/><g><path class="cls-1" d="m199.65,50.82v105.98s0-105.98,0-105.98Z"/><rect class="cls-1" x="196.16" y="50.82" width="6.97" height="105.98"/></g><rect class="cls-1" x="320.07" y="50.79" width="6.97" height="106"/></g><polygon class="cls-2" points="323.76 160.28 199.74 160.25 197.9 153.8 314.53 81.52 198.85 54.21 200.45 47.42 324.31 76.66 325.34 83.02 211.97 153.28 323.76 153.31 323.76 160.28"/></g><g><path class="cls-1" d="m0,279.9c0-25.67,14.75-41.8,36.54-41.8,9.92,0,17.54,4.67,22.11,9.66l-3.56,3.74c-4.58-4.96-10.78-8.24-18.54-8.24-18.67,0-30.29,14.12-30.29,36.58s11.62,37.07,29.91,37.07c8.68,0,15.19-3.38,21.32-9.93l3.56,3.49c-6.49,7.2-14.22,11.59-25.36,11.59-20.91,0-35.69-16.39-35.69-42.16Z"/><path class="cls-1" d="m120.78,290.83l-25.86-51.26h6.8s19.05,37.99,22.68,44.62l.47.02c3.79-6.84,22.43-44.64,22.43-44.64h6.57l-25.86,51.26v29.75h-7.23v-29.75Z"/><path class="cls-1" d="m187.99,239.58h25.02c20.57,0,32.84,5.93,32.84,22.56s-12.31,23.61-32.84,23.61h-18.58v34.83h-6.45v-81.01Zm23.42,41.4c18.78,0,27.79-5.52,27.79-18.84s-9.05-17.79-27.79-17.79h-16.98v36.62h16.98Z"/><path class="cls-1" d="m279.99,239.58h6.4v35.48h45.59v-35.48h6.4v81.01h-6.4v-40.55h-45.59v40.55h-6.4v-81.01Z"/><path class="cls-1" d="m372.75,239.58h57.21v4.88h-50.44v30.67h42.46v4.88h-42.46v35.71h51.91v4.88h-58.67v-81.01Z"/><path class="cls-1" d="m465.28,239.58h26.11c18.15,0,30.09,5.9,30.09,21.4s-11.94,22.42-30.09,22.42h-19.68v37.19h-6.44v-81.01Zm24.45,39.04c16.17,0,25.15-5.7,25.15-17.64s-8.98-16.62-25.15-16.62h-18.01v34.26h18.01Zm6.34,1.47l27.14,40.5h-7.42l-25.84-38.85,6.13-1.65Z"/></g></g></g></svg>