<?xml version="1.0" encoding="UTF-8"?><svg id="_レイヤー_2" xmlns="http://www.w3.org/2000/svg" viewBox="0 0 159.59 48.03"><defs><style>.cls-1{fill:none;stroke:#000;stroke-miterlimit:10;}</style></defs><g id="_コンテンツ"><g><path d="m63.63,14.34c-.3-.38-.68-.69-1.15-.93-.47-.23-1.03-.35-1.69-.35-.34,0-.68.05-1.03.14-.35.1-.67.24-.95.44-.29.2-.52.45-.69.75-.17.3-.26.65-.26,1.06s.08.74.25,1.01.39.49.67.67c.28.19.6.34.95.46.36.12.73.24,1.12.36.48.14.96.3,1.45.47s.92.39,1.31.66c.39.27.71.61.95,1.03s.37.94.37,1.57-.13,1.19-.4,1.65c-.27.46-.61.84-1.03,1.14-.42.3-.9.52-1.44.67s-1.08.22-1.62.22c-.42,0-.83-.04-1.24-.12-.42-.08-.81-.2-1.19-.35s-.73-.35-1.05-.59c-.32-.24-.61-.52-.85-.83l1.21-.83c.3.46.72.84,1.25,1.14.54.31,1.17.46,1.9.46.35,0,.71-.05,1.07-.15.36-.1.69-.26.98-.47s.53-.47.72-.77.28-.66.28-1.07c0-.44-.09-.81-.28-1.11-.19-.29-.44-.54-.75-.74-.31-.2-.67-.36-1.07-.5-.4-.13-.82-.26-1.26-.4-.45-.13-.9-.28-1.34-.45-.44-.17-.84-.39-1.19-.66s-.63-.6-.85-1-.32-.88-.32-1.46c0-.61.13-1.14.4-1.58.27-.44.61-.81,1.04-1.1.43-.29.9-.5,1.42-.63.52-.13,1.03-.2,1.54-.2.93,0,1.73.15,2.39.46.66.31,1.16.67,1.5,1.09l-1.11.83Z"/><path d="m74.4,18.53c-.22-.32-.54-.59-.96-.8-.42-.21-.88-.31-1.37-.31-.53,0-1.01.09-1.44.26-.43.17-.79.41-1.1.72-.3.31-.54.67-.7,1.08-.16.41-.24.86-.24,1.34s.08.92.24,1.33c.16.41.39.76.69,1.07.3.31.66.55,1.09.72s.91.26,1.44.26c.58,0,1.08-.1,1.48-.31.4-.2.73-.47.99-.79l.99.68c-.39.44-.87.8-1.43,1.06-.56.26-1.24.4-2.03.4-.74,0-1.41-.11-2-.33-.6-.22-1.1-.53-1.53-.93-.42-.4-.75-.86-.98-1.4-.23-.54-.35-1.13-.35-1.76s.12-1.22.35-1.76.56-1.01.98-1.4c.42-.4.93-.71,1.53-.93.6-.22,1.26-.33,2-.33.61,0,1.23.12,1.86.37.63.25,1.14.61,1.53,1.09l-1.03.68Z"/><path d="m77.55,17.58c-.01-.36-.03-.68-.06-.97h1.26c.03.23.04.48.06.76.01.28.02.5.02.68h.04c.26-.49.65-.89,1.17-1.2.52-.31,1.1-.46,1.75-.46.17,0,.32,0,.46.02.14.01.28.04.42.07l-.17,1.15c-.08-.02-.21-.05-.39-.07-.18-.02-.36-.04-.54-.04-.35,0-.69.06-1.01.18-.32.12-.61.31-.85.57-.24.26-.43.59-.58.99-.15.4-.22.89-.22,1.45v4.32h-1.32v-6.57c0-.23,0-.52-.02-.88Z"/><path d="m93.26,20.82c0,.64-.12,1.22-.36,1.76-.24.54-.57,1.01-1,1.4s-.94.71-1.54.93c-.6.22-1.25.33-1.96.33s-1.35-.11-1.94-.33c-.6-.22-1.11-.53-1.54-.93-.43-.4-.76-.86-1-1.4-.24-.54-.36-1.13-.36-1.76s.12-1.22.36-1.76.57-1.01,1-1.4c.43-.4.94-.71,1.54-.93.6-.22,1.24-.33,1.94-.33s1.37.11,1.96.33c.6.22,1.11.53,1.54.93s.76.86,1,1.4c.24.54.36,1.13.36,1.76Zm-1.4,0c0-.47-.08-.91-.24-1.32s-.39-.77-.69-1.08c-.3-.31-.66-.55-1.09-.73-.43-.18-.91-.27-1.44-.27s-1.01.09-1.43.27c-.42.18-.78.42-1.08.73-.3.31-.53.67-.69,1.08-.16.41-.24.85-.24,1.32s.08.91.24,1.32c.16.41.39.77.69,1.08.3.31.66.55,1.08.72.42.17.9.26,1.43.26s1.01-.09,1.44-.26.79-.41,1.09-.72c.3-.31.53-.67.69-1.08s.24-.85.24-1.32Z"/><path d="m97.46,25.03h-1.32v-13.61h1.32v13.61Z"/><path d="m102.36,25.03h-1.32v-13.61h1.32v13.61Z"/></g><polygon class="cls-1" points="79.8 47.45 157.79 .5 1.8 .5 79.8 47.45"/></g></svg>